<?xml version="1.0" standalone="no"?>
<!DOCTYPE svg PUBLIC "-//W3C//DTD SVG 20010904//EN"
 "http://www.w3.org/TR/2001/REC-SVG-20010904/DTD/svg10.dtd">
<svg version="1.0" xmlns="http://www.w3.org/2000/svg"
 width="80.000000pt" height="91.000000pt" viewBox="0 0 80.000000 91.000000"
 preserveAspectRatio="xMidYMid meet">

<g transform="translate(0.000000,91.000000) scale(0.100000,-0.100000)"
fill="#000000" stroke="none">
<path d="M0 455 l0 -455 400 0 400 0 0 455 0 455 -400 0 -400 0 0 -455z m310
140 c0 -198 15 -224 137 -238 29 -3 69 -14 89 -23 41 -20 104 -76 104 -93 0
-8 -40 -11 -132 -11 -119 0 -138 3 -183 24 -60 28 -97 66 -124 126 -18 39 -21
66 -21 203 l0 157 65 0 65 0 0 -145z"/>
</g>
</svg>
